<svg xmlns="http://www.w3.org/2000/svg" version="1.1" xmlns:xlink="http://www.w3.org/1999/xlink" xmlns:svgjs="http://svgjs.dev/svgjs" width="1000" height="351" viewBox="0 0 1000 351"><g transform="matrix(1,0,0,1,-0.6056348047761162,-0.12377337287918522)"><svg viewBox="0 0 396 139" data-background-color="#f9e17e" preserveAspectRatio="xMidYMid meet" height="351" width="1000" xmlns="http://www.w3.org/2000/svg" xmlns:xlink="http://www.w3.org/1999/xlink"><g id="tight-bounds" transform="matrix(1,0,0,1,0.24008861730862918,0.04901566618292463)"><svg viewBox="0 0 395.52 138.90196866763415" height="138.90196866763415" width="395.52"><g><svg viewBox="0 0 395.52 138.90196866763415" height="138.90196866763415" width="395.52"><g><svg viewBox="0 0 395.52 138.90196866763415" height="138.90196866763415" width="395.52"><g id="textblocktransform"><svg viewBox="0 0 395.52 138.90196866763415" height="138.90196866763415" width="395.52" id="textblock"><g><svg viewBox="0 0 395.52 105.34599595500356" height="105.34599595500356" width="395.52"><path d="M394.594 22.595C392.735 11.66 387.435 8.62 387.435 8.62 371.165-2.643 350.86-0.215 332.619 1.403 300.414 1.469 268.339 3.874 236.208 5.165 168.767 5.361 100.749 2.125 33.643 10.107 27.339 12.556-6.54 10.588 1.121 23.994 3.129 29.571 10.456 35.76 10.232 40.878 11.236 41.774 12.631 39.719 13.226 41.009 15.309 44.486 18.711 42.846 21.501 44.902 17.614 50.391 20.403 54.962 23.062 59.751 18.377 60.998 12.371 60.408 9.675 64.541 9.396 67.537 7.89 66.968 6.235 66.837 5.026 66.75 2.59 67.078 2.999 68.018 4.394 71.233-1.594 73.092 2.162 76.241-0.422 79.653 3.948 82.605 3.353 86.301 3.278 87.045 3.687 87.679 4.338 87.854 7.22 88.794 3.018 90.632 3.464 92.622 33.029 106.225 65.104 96.821 95.394 103.075 103.259 98.701 97.346 104.628 100.489 103.71 102.943 102.638 104.728 107.078 107.499 104.563 107.927 103.841 107.276 102.135 108.8 102.463 109.6 102.638 110.307 102.594 110.418 101.588 110.586 100.079 109.117 101.02 108.726 100.232 112.947 96.252 111.906 105.722 115.866 105.328 115.68 104.169 114.528 102.507 116.889 102.725 119.232 101.063 119.306 99.686 121.389 103.425 121.463 104.234 121.835 104.803 122.43 105.197 128.938 101.129 135.409 106.64 142.233 104.803 146.417 102.791 150.433 105.897 154.672 105.131 156.16 104.519 157.666 103.425 159.098 105.262 176.632 105.656 195.319 104.016 211.943 105.328 256.364 102.879 303.835 106.334 350.674 103.097 361.719 101.851 373.192 100.079 383.958 98.658 383.958 98.658 392.679 94.765 392.679 77.269S394.538 61.96 394.817 48.029C395.096 34.098 396.398 33.53 394.538 22.595Z" opacity="1" fill="#f5ba41" data-fill-palette-color="tertiary"></path><g transform="matrix(1,0,0,1,55.76832,26.068561146666667)"><svg width="283.98335999999995" viewBox="0.12999999523162842 -35 186.77999877929688 35" height="53.208873661670225" data-palette-color="#f9e17e"><path d="M18.07 0L12.63 0 0.13-35 5.73-35 16.03-5.83 14.65-5.83 24.95-35 30.58-35 18.07 0ZM56.9 0L34.62 0 34.62-35 56.42-35 56.42-29.9 40.15-29.9 40.15-20.83 52.97-20.83 52.97-15.73 40.15-15.73 40.15-5.1 56.9-5.1 56.9 0ZM75.65 0L62.62 0 62.62-35 75.65-35Q80.7-35 84.61-32.93 88.52-30.85 90.75-26.94 92.97-23.03 92.97-17.5L92.97-17.5Q92.97-11.98 90.75-8.06 88.52-4.15 84.61-2.08 80.7 0 75.65 0L75.65 0ZM68.07-30.1L68.07-4.9 75.65-4.9Q79.4-4.9 81.92-6.46 84.45-8.03 85.73-10.86 87.02-13.7 87.02-17.5L87.02-17.5Q87.02-21.3 85.73-24.14 84.45-26.98 81.92-28.54 79.4-30.1 75.65-30.1L75.65-30.1 68.07-30.1ZM117.22-13.83L117.22-8.95 102.37-8.95 102.37-13.83 117.22-13.83ZM119.52 0L109.04-29.68 110.54-29.68 100.07 0 94.57 0 107.07-35 112.52-35 125.02 0 119.52 0ZM134.67 0L129.22 0 129.22-35 134.87-35 151.14-10.33 151.14-35 156.62-35 156.62 0 152.07 0 134.67-26.1 134.67 0ZM176.84 0L171.39 0 171.39-29.9 161.31-29.9 161.31-35 186.91-35 186.91-29.9 176.84-29.9 176.84 0Z" opacity="1" transform="matrix(1,0,0,1,0,0)" fill="#f9e17e" class="undefined-text-0" data-fill-palette-color="quaternary" id="text-0"></path></svg></g></svg></g><g transform="matrix(1,0,0,1,75.54432,117.90733401355602)"><svg viewBox="0 0 244.43135999999998 20.994634654078133" height="20.994634654078133" width="244.43135999999998"><g transform="matrix(1,0,0,1,0,0)"><svg width="244.43135999999998" viewBox="-1.2470588684082031 -36.95000076293945 540.7470703125 46.45000076293945" height="20.994634654078133" data-palette-color="#f5ba41"><path d="M32.6-33.3Q34.45-33.3 35.48-32.5 36.5-31.7 36.5-30.3L36.5-30.3Q36.5-29.6 36.3-28.95L36.3-28.95 35-24.3Q34.65-23 33.85-22.45 33.05-21.9 31.75-21.9L31.75-21.9Q30.5-21.9 29.75-22.43 29-22.95 28.65-24.15L28.65-24.15 27.85-27Q27.65-27.75 27.35-28 27.05-28.25 26.1-28.25L26.1-28.25 21.1-28.25 18.3-18.35 19.25-18.35Q19.95-18.35 20.48-18.55 21-18.75 21.6-19.3L21.6-19.3 23.15-20.6Q24-21.35 24.68-21.68 25.35-22 26.1-22L26.1-22Q27.05-22 27.68-21.45 28.3-20.9 28.3-19.9L28.3-19.9Q28.3-19.5 28.15-18.95L28.15-18.95 25.95-11.35Q25.2-8.9 23.25-8.9L23.25-8.9Q21.65-8.9 20.75-10.55L20.75-10.55 19.85-12.25Q19.5-12.95 19.2-13.15 18.9-13.35 18.3-13.35L18.3-13.35 16.85-13.35 14.75-5.9Q14.65-5.6 14.65-5.1L14.65-5.1Q14.65-4.4 14.98-3.95 15.3-3.5 15.95-3L15.95-3Q16.5-2.55 16.7-2.27 16.9-2 16.9-1.6L16.9-1.6Q16.9-0.7 16.1-0.35 15.3 0 13.75 0L13.75 0 1.2 0Q-0.1 0-0.75-0.48-1.4-0.95-1.2-1.8L-1.2-1.8Q-1.1-2.25-0.83-2.53-0.55-2.8 0-3.15L0-3.15Q0.85-3.65 1.35-4.2 1.85-4.75 2.15-5.9L2.15-5.9 8.3-27.45Q8.5-28.1 8.5-28.65L8.5-28.65Q8.5-29.25 8.33-29.65 8.15-30.05 7.8-30.5L7.8-30.5Q7.35-31.15 7.35-31.55L7.35-31.55Q7.35-31.7 7.45-32.1L7.45-32.1Q7.65-32.75 8.35-33.02 9.05-33.3 10.4-33.3L10.4-33.3 32.6-33.3ZM65.3-20.15L61.25-6.9Q61.15-6.5 61.15-6.3L61.15-6.3Q61.15-5.95 61.32-5.75 61.5-5.55 61.8-5.55L61.8-5.55Q62.4-5.55 62.82-6.08 63.25-6.6 63.4-6.6L63.4-6.6Q63.65-6.6 63.82-6.28 64-5.95 64-5.5L64-5.5Q64.05-4.1 63-2.73 61.95-1.35 60.05-0.45 58.15 0.45 55.8 0.45L55.8 0.45Q52.85 0.45 51.1-0.75 49.35-1.95 48.85-3.9L48.85-3.9Q47.05-1.9 44.87-0.88 42.7 0.15 40.45 0.15L40.45 0.15Q36.95 0.15 34.57-1.58 32.2-3.3 32.2-6.4L32.2-6.4Q32.2-7.8 32.7-9.3L32.7-9.3 35.9-19.75Q36.05-20.2 36.05-20.5L36.05-20.5Q36.05-21.05 35.8-21.38 35.55-21.7 35.05-22.05L35.05-22.05Q34.55-22.45 34.35-22.75 34.15-23.05 34.3-23.55L34.3-23.55Q34.6-24.7 37.45-25.58 40.3-26.45 43.4-26.45L43.4-26.45Q46.3-26.45 47.65-25.35 49-24.25 49-22.35L49-22.35Q49-21.2 48.65-20.15L48.65-20.15 45.5-9.75Q45.3-9.2 45.3-8.7L45.3-8.7Q45.3-8 45.7-7.65 46.1-7.3 46.75-7.3L46.75-7.3Q47.7-7.3 48.3-7.85 48.9-8.4 49.5-9.7L49.5-9.7 52.55-19.75Q52.7-20.2 52.7-20.5L52.7-20.5Q52.7-21.05 52.45-21.38 52.2-21.7 51.75-22.05L51.75-22.05Q51.25-22.45 51.05-22.75 50.85-23.05 51-23.55L51-23.55Q51.25-24.7 54.1-25.58 56.95-26.45 60.05-26.45L60.05-26.45Q62.95-26.45 64.32-25.35 65.7-24.25 65.7-22.4L65.7-22.4Q65.7-21.45 65.3-20.15L65.3-20.15ZM81.8-36.95Q84.69-36.95 86.07-35.85 87.44-34.75 87.44-32.85L87.44-32.85Q87.44-31.75 87.09-30.7L87.09-30.7 79.25-5.2Q79.09-4.6 79.09-4.15L79.09-4.15Q79.09-3.5 79.34-3.13 79.59-2.75 80.05-2.4L80.05-2.4Q80.39-2.05 80.55-1.83 80.69-1.6 80.59-1.25L80.59-1.25Q80.34-0.6 79.59-0.3 78.84 0 77.3 0L77.3 0 65.89 0Q64.59 0 63.99-0.43 63.39-0.85 63.59-1.55L63.59-1.55Q63.8-2.15 64.64-2.6L64.64-2.6Q65.39-3 65.89-3.55 66.39-4.1 66.75-5.3L66.75-5.3 74.34-30.25Q74.5-30.7 74.5-31L74.5-31Q74.5-31.55 74.22-31.9 73.94-32.25 73.5-32.6L73.5-32.6Q73-33 72.77-33.3 72.55-33.6 72.69-34.1L72.69-34.1Q73-35.25 75.84-36.1 78.69-36.95 81.8-36.95L81.8-36.95ZM100.09-36.95Q102.99-36.95 104.37-35.85 105.74-34.75 105.74-32.85L105.74-32.85Q105.74-31.75 105.39-30.7L105.39-30.7 97.54-5.2Q97.39-4.6 97.39-4.15L97.39-4.15Q97.39-3.5 97.64-3.13 97.89-2.75 98.34-2.4L98.34-2.4Q98.69-2.05 98.84-1.83 98.99-1.6 98.89-1.25L98.89-1.25Q98.64-0.6 97.89-0.3 97.14 0 95.59 0L95.59 0 84.19 0Q82.89 0 82.29-0.43 81.69-0.85 81.89-1.55L81.89-1.55Q82.09-2.15 82.94-2.6L82.94-2.6Q83.69-3 84.19-3.55 84.69-4.1 85.04-5.3L85.04-5.3 92.64-30.25Q92.79-30.7 92.79-31L92.79-31Q92.79-31.55 92.52-31.9 92.24-32.25 91.79-32.6L91.79-32.6Q91.29-33 91.07-33.3 90.84-33.6 90.99-34.1L90.99-34.1Q91.29-35.25 94.14-36.1 96.99-36.95 100.09-36.95L100.09-36.95ZM131.14-33.6Q133.94-33.6 136.31-32.93 138.69-32.25 141.14-30.8L141.14-30.8 142.29-31.75Q143.49-32.7 144.26-33.05 145.04-33.4 146.04-33.4L146.04-33.4Q147.24-33.4 147.94-32.88 148.64-32.35 148.64-31.35L148.64-31.35Q148.64-30.95 148.49-30.5L148.49-30.5 146.39-23.6Q146.04-22.4 145.51-21.9 144.99-21.4 143.94-21.4L143.94-21.4Q142.84-21.4 142.01-22.08 141.19-22.75 139.44-24.85L139.44-24.85Q137.69-26.85 136.26-27.68 134.84-28.5 133.34-28.5L133.34-28.5Q132.24-28.5 131.49-27.78 130.74-27.05 130.74-26L130.74-26Q130.74-24.8 131.94-23.78 133.14-22.75 135.69-21.2L135.69-21.2Q138.29-19.65 139.99-18.4 141.69-17.15 142.89-15.3 144.09-13.45 144.09-11.05L144.09-11.05Q144.09-9.5 143.59-7.95L143.59-7.95Q142.39-3.95 138.94-1.88 135.49 0.2 130.89 0.2L130.89 0.2Q127.44 0.2 125.09-0.6 122.74-1.4 120.29-3.3L120.29-3.3 118.49-1.8Q117.24-0.75 116.44-0.38 115.64 0 114.64 0L114.64 0Q113.49 0 112.81-0.55 112.14-1.1 112.14-2.05L112.14-2.05Q112.14-2.55 112.34-3.1L112.34-3.1 114.79-10.55Q115.19-11.85 115.89-12.4 116.59-12.95 117.69-12.95L117.69-12.95Q118.84-12.95 119.76-12.15 120.69-11.35 122.19-9.25L122.19-9.25Q123.79-6.95 125.16-6.05 126.54-5.15 128.44-5.15L128.44-5.15Q129.79-5.15 130.51-5.58 131.24-6 131.54-6.95L131.54-6.95Q131.64-7.2 131.64-7.7L131.64-7.7Q131.64-8.9 130.49-9.9 129.34-10.9 126.94-12.3L126.94-12.3Q124.39-13.85 122.79-15.08 121.19-16.3 120.01-18.15 118.84-20 118.84-22.5L118.84-22.5Q118.84-24.25 119.39-25.95L119.39-25.95Q120.44-29.4 123.69-31.5 126.94-33.6 131.14-33.6L131.14-33.6ZM169.23-25.8Q170.19-25.8 170.71-25.4 171.23-25 171.23-24.3L171.23-24.3Q171.23-24.1 171.13-23.6L171.13-23.6Q170.48-21.4 168.13-21.4L168.13-21.4 165.23-21.4 161.48-9.05Q161.23-8.3 161.23-7.5L161.23-7.5Q161.23-6.6 161.73-6.25 162.23-5.9 163.13-5.9L163.13-5.9Q163.94-5.9 165.13-6.1L165.13-6.1Q165.73-6.25 166.19-6.25L166.19-6.25Q166.53-6.25 166.71-6.03 166.88-5.8 166.88-5.45L166.88-5.45Q166.94-4.45 165.41-3.03 163.88-1.6 161.28-0.58 158.69 0.45 155.53 0.45L155.53 0.45Q152.13 0.45 150.08-1.1 148.03-2.65 148.03-5.35L148.03-5.35Q148.03-6.6 148.44-7.75L148.44-7.75 151.63-17.65Q151.88-18.5 151.88-19L151.88-19Q151.88-20 151.41-20.7 150.94-21.4 150.08-22.15L150.08-22.15Q149.33-22.85 149.03-23.33 148.73-23.8 148.88-24.45L148.88-24.45Q149.08-25.1 149.73-25.45 150.38-25.8 151.78-25.8L151.78-25.8 154.58-25.8 157.73-28.95Q159.38-30.6 160.76-31.25 162.13-31.9 164.33-31.9L164.33-31.9Q167.48-31.9 167.48-29.5L167.48-29.5Q167.48-28.75 167.28-28.1L167.28-28.1 166.58-25.8 169.23-25.8ZM186.23-26.45Q191.98-26.45 195.43-24.33 198.88-22.2 198.88-17.85L198.88-17.85Q198.88-16.2 198.28-14.1L198.28-14.1 196.23-7.2Q196.18-7 196.18-6.7L196.18-6.7Q196.18-5.9 196.83-5.9L196.83-5.9Q197.43-5.9 197.86-6.43 198.28-6.95 198.43-6.95L198.43-6.95Q198.68-6.95 198.86-6.6 199.03-6.25 199.03-5.8L199.03-5.8Q199.08-4.45 198.01-3.05 196.93-1.65 195.13-0.75 193.33 0.15 191.18 0.15L191.18 0.15Q188.58 0.15 186.73-0.8 184.88-1.75 184.18-3.6L184.18-3.6Q182.68-1.8 180.63-0.83 178.58 0.15 176.23 0.15L176.23 0.15Q173.58 0.15 171.78-0.88 169.98-1.9 169.11-3.53 168.23-5.15 168.23-6.95L168.23-6.95Q168.23-7.75 168.38-8.5L168.38-8.5Q169.18-11.95 171.86-13.7 174.53-15.45 178.23-15.45L178.23-15.45Q182.38-15.45 186.38-14.15L186.38-14.15 187.63-17.45Q188.28-19.55 188.28-20.7L188.28-20.7Q188.23-21.9 187.48-22.5 186.73-23.1 185.18-23.1L185.18-23.1Q185.48-22.3 185.48-21.45L185.48-21.45Q185.48-19.6 184.08-18.25 182.68-16.9 180.08-16.9L180.08-16.9Q177.63-16.9 176.26-17.98 174.88-19.05 174.88-20.65L174.88-20.65Q174.88-23.15 177.68-24.8 180.48-26.45 186.23-26.45L186.23-26.45ZM183.43-11.3Q182.03-11.3 181.16-10.23 180.28-9.15 180.28-7.9L180.28-7.9Q180.28-7.1 180.66-6.6 181.03-6.1 181.73-6.1L181.73-6.1Q182.38-6.1 183.16-6.63 183.93-7.15 184.28-8.2L184.28-8.2 185.33-11.15Q184.48-11.3 183.43-11.3L183.43-11.3ZM217.73-26.7Q220.78-26.7 223.08-25.83 225.38-24.95 226.65-23.43 227.93-21.9 227.93-20.05L227.93-20.05Q227.93-18.05 226.55-16.75 225.18-15.45 222.83-15.45L222.83-15.45Q220.43-15.45 219.08-16.68 217.73-17.9 217.73-20L217.73-20Q217.73-21 218.03-22.1L218.03-22.1Q215.93-21.55 214.3-19.93 212.68-18.3 212.13-15.65L212.13-15.65Q211.83-14.15 211.83-12.95L211.83-12.95Q211.83-10.25 213.33-8.85 214.83-7.45 217.63-7.45L217.63-7.45Q219.23-7.45 220.38-7.78 221.53-8.1 222.73-8.65L222.73-8.65Q223.73-9.15 224.18-9.15L224.18-9.15Q224.48-9.15 224.58-9.03 224.68-8.9 224.68-8.5L224.68-8.5Q224.73-6.65 223.15-4.63 221.58-2.6 218.8-1.23 216.03 0.15 212.58 0.15L212.58 0.15Q208.98 0.15 206.2-1.18 203.43-2.5 201.9-4.98 200.38-7.45 200.38-10.75L200.38-10.75Q200.38-12.3 200.78-14.2L200.78-14.2Q202.13-20.4 206.75-23.55 211.38-26.7 217.73-26.7L217.73-26.7ZM256.33-26.45Q259.18-26.45 260.9-24.88 262.63-23.3 262.63-21.05L262.63-21.05Q262.63-18.65 261.18-17.3 259.73-15.95 257.38-15.95L257.38-15.95Q255.28-15.95 254.13-17.03 252.98-18.1 253.03-19.45L253.03-19.45Q252.53-19.55 252.18-19.05 251.83-18.55 251.43-17.1L251.43-17.1Q251.18-16.15 250.48-15.35L250.48-15.35Q253.88-15.1 255.53-13.8 257.18-12.5 257.18-10.45L257.18-10.45Q257.18-9.45 256.83-8.45L256.83-8.45 256.43-6.9Q256.33-6.65 256.33-6.25L256.33-6.25Q256.33-5.55 256.98-5.55L256.98-5.55Q257.58-5.55 258-6.08 258.43-6.6 258.58-6.6L258.58-6.6Q258.83-6.6 258.98-6.28 259.13-5.95 259.13-5.5L259.13-5.5Q259.18-4.05 258.25-2.68 257.33-1.3 255.45-0.43 253.58 0.45 250.93 0.45L250.93 0.45Q247.73 0.45 245.6-1.15 243.48-2.75 243.48-5.35L243.48-5.35Q243.48-6.3 243.88-7.5L243.88-7.5 244.83-10Q245.08-10.9 245.08-11.3L245.08-11.3Q245.08-11.95 244.65-12.25 244.23-12.55 243.33-12.55L243.33-12.55 242.33-12.55 240.08-5.2Q239.93-4.6 239.93-4.15L239.93-4.15Q239.93-3.5 240.18-3.13 240.43-2.75 240.88-2.4L240.88-2.4Q241.23-2.05 241.38-1.83 241.53-1.6 241.43-1.25L241.43-1.25Q241.18-0.6 240.43-0.3 239.68 0 238.13 0L238.13 0 226.73 0Q225.43 0 224.83-0.43 224.23-0.85 224.43-1.55L224.43-1.55Q224.63-2.15 225.48-2.6L225.48-2.6Q226.23-3 226.73-3.55 227.23-4.1 227.58-5.3L227.58-5.3 235.18-30.25Q235.33-30.7 235.33-31L235.33-31Q235.33-31.55 235.05-31.9 234.78-32.25 234.33-32.6L234.33-32.6Q233.83-33 233.6-33.3 233.38-33.6 233.53-34.1L233.53-34.1Q233.83-35.25 236.68-36.1 239.53-36.95 242.63-36.95L242.63-36.95Q245.53-36.95 246.88-35.88 248.23-34.8 248.23-32.9L248.23-32.9Q248.23-31.75 247.88-30.7L247.88-30.7 243.53-16.5 245.18-16.5Q246.18-16.5 246.8-17.1 247.43-17.7 247.78-18.85L247.78-18.85Q249.03-22.55 251.03-24.5 253.03-26.45 256.33-26.45L256.33-26.45ZM295.57-33.3Q303.07-33.3 306.87-30.43 310.67-27.55 310.67-22L310.67-22Q310.67-19.25 309.67-15.65L309.67-15.65Q308.02-9.85 305.22-6.45 302.42-3.05 297.85-1.5 293.27 0.05 286.12 0L286.12 0 272.52-0.05Q271.47-0.05 270.9-0.4 270.32-0.75 270.32-1.35L270.32-1.35Q270.32-1.65 270.47-2L270.47-2Q270.62-2.45 270.9-2.65 271.17-2.85 271.72-3.2L271.72-3.2Q272.52-3.65 273-4.2 273.47-4.75 273.82-5.95L273.82-5.95 279.92-27.45Q280.12-28.1 280.12-28.7L280.12-28.7Q280.12-29.25 279.95-29.63 279.77-30 279.47-30.5L279.47-30.5Q279.02-31.15 279.02-31.55L279.02-31.55Q279.02-31.7 279.12-32.1L279.12-32.1Q279.32-32.75 280-33.02 280.67-33.3 282.07-33.3L282.07-33.3 295.57-33.3ZM296.87-16.75Q298.17-21.45 298.17-24.15L298.17-24.15Q298.17-26.8 297.07-27.8 295.97-28.8 293.92-28.8L293.92-28.8 292.82-28.8 286.07-4.5 287.27-4.5Q289.57-4.5 291.15-5.48 292.72-6.45 294.07-9.08 295.42-11.7 296.87-16.75L296.87-16.75ZM327.17-26.7Q333.52-26.7 336.37-24.68 339.22-22.65 339.22-19.5L339.22-19.5Q339.22-18.55 339.02-17.75L339.02-17.75Q338.27-14.45 334.85-13.03 331.42-11.6 326.77-11.6L326.77-11.6Q324.42-11.6 322.37-11.9L322.37-11.9Q322.32-9.3 323.77-8.25 325.22-7.2 327.82-7.2L327.82-7.2Q329.02-7.2 330.12-7.48 331.22-7.75 332.92-8.3L332.92-8.3Q334.32-8.8 334.82-8.8L334.82-8.8Q335.37-8.8 335.37-8.15L335.37-8.15Q335.42-6.4 334.07-4.48 332.72-2.55 330.07-1.2 327.42 0.15 323.67 0.15L323.67 0.15Q318.12 0.15 314.57-2.65 311.02-5.45 311.02-10.8L311.02-10.8Q311.02-12.3 311.42-14.3L311.42-14.3Q312.67-20.45 316.9-23.58 321.12-26.7 327.17-26.7L327.17-26.7ZM322.72-14.9Q322.92-14.85 323.27-14.85L323.27-14.85Q325.37-14.85 326.47-16.8 327.57-18.75 327.52-21.15L327.52-21.15Q327.47-22.55 326.72-22.55L326.72-22.55Q326.17-22.55 325.42-21.68 324.67-20.8 323.95-19.05 323.22-17.3 322.72-14.9L322.72-14.9ZM362.62-26.45Q365.27-26.45 367.02-24.55 368.77-22.65 368.77-19.35L368.77-19.35Q368.77-14.9 365.67-10.25 362.57-5.6 357.82-2.58 353.07 0.45 348.57 0.45L348.57 0.45Q344.27 0.45 341.59-1.3 338.92-3.05 338.92-6.3L338.92-6.3Q338.92-7.5 339.37-9L339.37-9 342.52-19.75Q342.62-20.15 342.62-20.35L342.62-20.35Q342.62-20.85 342.37-21.2 342.12-21.55 341.67-21.95L341.67-21.95Q340.92-22.6 340.92-23.1L340.92-23.1Q340.87-23.8 341.77-24.6 342.67-25.4 344.29-25.93 345.92-26.45 347.97-26.45L347.97-26.45Q351.32-26.45 353.19-24.83 355.07-23.2 355.07-20.6L355.07-20.6Q355.07-19.45 354.67-18.1L354.67-18.1 351.42-7.4Q351.27-6.95 351.27-6.65L351.27-6.65Q351.27-6 351.72-5.65 352.17-5.3 352.97-5.3L352.97-5.3Q354.07-5.3 355.54-6.28 357.02-7.25 358.47-9.08 359.92-10.9 360.82-13.4L360.82-13.4Q358.82-15.15 357.99-16.85 357.17-18.55 357.17-20.35L357.17-20.35Q357.17-22.9 358.57-24.68 359.97-26.45 362.62-26.45L362.62-26.45ZM385.12-26.7Q391.47-26.7 394.31-24.68 397.17-22.65 397.17-19.5L397.17-19.5Q397.17-18.55 396.97-17.75L396.97-17.75Q396.22-14.45 392.79-13.03 389.37-11.6 384.72-11.6L384.72-11.6Q382.37-11.6 380.31-11.9L380.31-11.9Q380.27-9.3 381.72-8.25 383.17-7.2 385.77-7.2L385.77-7.2Q386.97-7.2 388.06-7.48 389.17-7.75 390.87-8.3L390.87-8.3Q392.27-8.8 392.77-8.8L392.77-8.8Q393.31-8.8 393.31-8.15L393.31-8.15Q393.37-6.4 392.02-4.48 390.67-2.55 388.02-1.2 385.37 0.15 381.62 0.15L381.62 0.15Q376.06 0.15 372.52-2.65 368.97-5.45 368.97-10.8L368.97-10.8Q368.97-12.3 369.37-14.3L369.37-14.3Q370.62-20.45 374.84-23.58 379.06-26.7 385.12-26.7L385.12-26.7ZM380.67-14.9Q380.87-14.85 381.22-14.85L381.22-14.85Q383.31-14.85 384.42-16.8 385.52-18.75 385.47-21.15L385.47-21.15Q385.42-22.55 384.67-22.55L384.67-22.55Q384.12-22.55 383.37-21.68 382.62-20.8 381.89-19.05 381.17-17.3 380.67-14.9L380.67-14.9ZM412.11-36.95Q415.01-36.95 416.39-35.85 417.76-34.75 417.76-32.85L417.76-32.85Q417.76-31.75 417.41-30.7L417.41-30.7 409.56-5.2Q409.41-4.6 409.41-4.15L409.41-4.15Q409.41-3.5 409.66-3.13 409.91-2.75 410.36-2.4L410.36-2.4Q410.71-2.05 410.86-1.83 411.01-1.6 410.91-1.25L410.91-1.25Q410.66-0.6 409.91-0.3 409.16 0 407.61 0L407.61 0 396.21 0Q394.91 0 394.31-0.43 393.71-0.85 393.91-1.55L393.91-1.55Q394.11-2.15 394.96-2.6L394.96-2.6Q395.71-3 396.21-3.55 396.71-4.1 397.06-5.3L397.06-5.3 404.66-30.25Q404.81-30.7 404.81-31L404.81-31Q404.81-31.55 404.54-31.9 404.26-32.25 403.81-32.6L403.81-32.6Q403.31-33 403.09-33.3 402.86-33.6 403.01-34.1L403.01-34.1Q403.31-35.25 406.16-36.1 409.01-36.95 412.11-36.95L412.11-36.95ZM433.81-26.45Q440.61-26.45 443.84-23.7 447.06-20.95 447.06-16.5L447.06-16.5Q447.06-15 446.66-13.15L446.66-13.15Q445.71-9.05 443.11-5.98 440.51-2.9 436.74-1.23 432.96 0.45 428.56 0.45L428.56 0.45Q421.61 0.45 418.29-2.33 414.96-5.1 414.96-9.7L414.96-9.7Q414.96-11.25 415.36-13.15L415.36-13.15Q416.31-17.05 418.99-20.08 421.66-23.1 425.54-24.78 429.41-26.45 433.81-26.45L433.81-26.45ZM433.66-22Q432.61-22 431.44-20.13 430.26-18.25 428.66-13.05L428.66-13.05Q427.06-7.85 427.06-5.75L427.06-5.75Q427.06-4.65 427.41-4.28 427.76-3.9 428.36-3.9L428.36-3.9Q429.41-3.8 430.54-5.7 431.66-7.6 433.36-13.1L433.36-13.1Q434.91-17.95 434.91-20.15L434.91-20.15Q434.91-21.2 434.59-21.6 434.26-22 433.66-22L433.66-22ZM472.41-26.65Q476.26-26.65 478.46-24.1 480.66-21.55 480.66-17.15L480.66-17.15Q480.66-14.8 480.01-12.2L480.01-12.2Q478.51-6 474.41-2.78 470.31 0.45 464.91 0.45L464.91 0.45Q461.46 0.45 458.91-1L458.91-1 457.31 4.35Q457.11 4.9 457.11 5.4L457.11 5.4Q457.11 5.95 457.36 6.33 457.61 6.7 458.01 7.05L458.01 7.05Q458.41 7.45 458.53 7.7 458.66 7.95 458.56 8.3L458.56 8.3Q458.36 8.95 457.61 9.22 456.86 9.5 455.31 9.5L455.31 9.5 443.86 9.5Q442.56 9.5 441.98 9.08 441.41 8.65 441.66 8L441.66 8Q441.76 7.6 442.01 7.35 442.26 7.1 442.71 6.9L442.71 6.9Q443.46 6.4 443.91 5.88 444.36 5.35 444.71 4.2L444.71 4.2 452.01-19.75Q452.16-20.2 452.16-20.5L452.16-20.5Q452.16-21.05 451.91-21.38 451.66-21.7 451.16-22.05L451.16-22.05Q450.66-22.45 450.46-22.75 450.26-23.05 450.41-23.55L450.41-23.55Q450.71-24.7 453.56-25.58 456.41-26.45 459.51-26.45L459.51-26.45Q461.71-26.45 463.13-25.35 464.56-24.25 464.76-22.3L464.76-22.3Q468.16-26.65 472.41-26.65L472.41-26.65ZM466.61-11.8Q467.81-16.25 467.81-17.95L467.81-17.95Q467.81-19 467.48-19.33 467.16-19.65 466.56-19.65L466.56-19.65Q466.11-19.65 465.41-19.23 464.71-18.8 464.01-17.8L464.01-17.8 460.06-4.7Q460.66-4.1 461.51-4.1L461.51-4.1Q462.86-4.1 464.08-5.63 465.31-7.15 466.61-11.8L466.61-11.8ZM497.76-26.7Q504.11-26.7 506.96-24.68 509.81-22.65 509.81-19.5L509.81-19.5Q509.81-18.55 509.61-17.75L509.61-17.75Q508.86-14.45 505.43-13.03 502.01-11.6 497.36-11.6L497.36-11.6Q495.01-11.6 492.96-11.9L492.96-11.9Q492.91-9.3 494.36-8.25 495.81-7.2 498.41-7.2L498.41-7.2Q499.61-7.2 500.71-7.48 501.81-7.75 503.51-8.3L503.51-8.3Q504.91-8.8 505.41-8.8L505.41-8.8Q505.96-8.8 505.96-8.15L505.96-8.15Q506.01-6.4 504.66-4.48 503.31-2.55 500.66-1.2 498.01 0.15 494.26 0.15L494.26 0.15Q488.71 0.15 485.16-2.65 481.61-5.45 481.61-10.8L481.61-10.8Q481.61-12.3 482.01-14.3L482.01-14.3Q483.26-20.45 487.48-23.58 491.71-26.7 497.76-26.7L497.76-26.7ZM493.31-14.9Q493.51-14.85 493.86-14.85L493.86-14.85Q495.96-14.85 497.06-16.8 498.16-18.75 498.11-21.15L498.11-21.15Q498.06-22.55 497.31-22.55L497.31-22.55Q496.76-22.55 496.01-21.68 495.26-20.8 494.53-19.05 493.81-17.3 493.31-14.9L493.31-14.9ZM533.35-26.45Q536.15-26.45 537.83-24.75 539.5-23.05 539.5-20.55L539.5-20.55Q539.5-19.6 539.3-18.8L539.3-18.8Q538.8-16.75 537.4-15.65 536-14.55 534.05-14.55L534.05-14.55Q532.15-14.55 531.18-15.45 530.2-16.35 529.45-17.85L529.45-17.85Q529.05-18.7 528.7-19.1 528.35-19.5 527.9-19.5L527.9-19.5Q527.4-19.5 527.03-19.1 526.65-18.7 526.35-17.7L526.35-17.7 522.5-5.2Q522.4-4.95 522.4-4.45L522.4-4.45Q522.4-3.8 522.78-3.38 523.15-2.95 523.8-2.55L523.8-2.55Q524.4-2.15 524.6-1.9 524.8-1.65 524.75-1.25L524.75-1.25Q524.65-0.6 524.03-0.3 523.4 0 521.9 0L521.9 0 509.1 0Q507.8 0 507.23-0.43 506.65-0.85 506.8-1.55L506.8-1.55Q507-2.15 507.85-2.6L507.85-2.6Q508.6-3 509.1-3.55 509.6-4.1 509.95-5.3L509.95-5.3 514.4-19.75Q514.5-20 514.5-20.45L514.5-20.45Q514.5-21 514.28-21.3 514.05-21.6 513.55-22.05L513.55-22.05Q513.05-22.45 512.85-22.75 512.65-23.05 512.8-23.55L512.8-23.55Q513.1-24.7 515.95-25.58 518.8-26.45 521.9-26.45L521.9-26.45Q523.95-26.45 525.3-25.53 526.65-24.6 527.05-22.9L527.05-22.9Q529.45-26.45 533.35-26.45L533.35-26.45Z" opacity="1" transform="matrix(1,0,0,1,0,0)" fill="#f5ba41" class="undefined-text-1" data-fill-palette-color="secondary" id="text-1"></path></svg></g></svg></g></svg></g></svg></g><g></g></svg></g><defs></defs></svg><rect width="395.52" height="138.90196866763415" fill="none" stroke="none" visibility="hidden"></rect></g></svg></g></svg>